<?xml version="1.0" standalone="no"?>
<!DOCTYPE svg PUBLIC "-//W3C//DTD SVG 20010904//EN" "http://www.w3.org/TR/2001/REC-SVG-20010904/DTD/svg10.dtd">
<!-- Created using Krita: https://krita.org -->
<svg xmlns="http://www.w3.org/2000/svg" 
    xmlns:xlink="http://www.w3.org/1999/xlink"
    xmlns:krita="http://krita.org/namespaces/svg/krita"
    xmlns:sodipodi="http://sodipodi.sourceforge.net/DTD/sodipodi-0.dtd"
    width="8.64pt"
    height="11.52pt"
    viewBox="0 0 8.64 11.52">
<defs/>
<path id="path4" transform="matrix(0.72 0 0 0.72 2.88 0.72)" fill="#000000" fill-opacity="0.899992370489052" stroke-opacity="0" stroke="#000000" stroke-width="0" stroke-linecap="square" stroke-linejoin="bevel" d="M0 10L0 3.21429C0 2.97429 0.22 2.78571 0.5 2.78571C0.78 2.78571 1 2.97429 1 3.21429L1 10ZM5 4.21429L5 10L6 10L6 4.21429C6 3.97429 5.78 3.78571 5.5 3.78571C5.22 3.78571 5 3.97429 5 4.21429ZM8 3C8 1.57714 6.66 0 5 0C3.34 0 2 1.57714 2 3L2 10L3 10L3 3.42857L7 3.42857L7 10L8 10ZM5 10C5 10.4714 4.55 11 4 11C3.45 11 3 10.4714 3 10L2 10C2 10.9429 2.9 12 4 12C5.1 12 6 10.9429 6 10ZM7 10C7 11.4229 5.66 13 4 13C2.34 13 1 11.4229 1 10L0 10C0 11.8857 1.8 14 4 14C6.2 14 8 11.8857 8 10ZM7 3L7 3.42857L3 3.42857L3 3ZM3 3C3 2.05714 3.9 1 5 1C6.1 1 7 2.05714 7 3Z" sodipodi:nodetypes="ccscccccccsccscccccccccsccscccsccsccccccccscc"/>
</svg>
